<svg width="304" height="231" viewBox="0 0 304 231" fill="none" xmlns="http://www.w3.org/2000/svg">
<path d="M0 2.99999C0 1.34314 1.34315 0 3 0H297C298.657 0 300 1.34315 300 3V220C300 221.657 298.657 223 297 223H3C1.34314 223 0 221.657 0 220V2.99999Z" fill="#4F5955"/>
<path d="M24.508 72.216C25.2453 72.216 25.9033 72.3747 26.482 72.692C27.07 73.0093 27.5273 73.4667 27.854 74.064C28.19 74.6613 28.358 75.3613 28.358 76.164C28.358 76.9667 28.19 77.6667 27.854 78.264C27.5273 78.852 27.07 79.3047 26.482 79.622C25.9033 79.9393 25.2453 80.098 24.508 80.098C23.7707 80.098 23.108 79.9393 22.52 79.622C21.9413 79.3047 21.484 78.852 21.148 78.264C20.812 77.6667 20.644 76.9667 20.644 76.164C20.644 75.3613 20.812 74.6613 21.148 74.064C21.484 73.4667 21.9413 73.0093 22.52 72.692C23.108 72.3747 23.7707 72.216 24.508 72.216ZM24.508 73.336C24.0507 73.336 23.626 73.4387 23.234 73.644C22.8513 73.8493 22.5387 74.1667 22.296 74.596C22.0627 75.016 21.946 75.5387 21.946 76.164C21.946 76.78 22.0627 77.3027 22.296 77.732C22.5387 78.152 22.8513 78.4647 23.234 78.67C23.626 78.8753 24.0507 78.978 24.508 78.978C24.9653 78.978 25.3853 78.8753 25.768 78.67C26.16 78.4647 26.4727 78.152 26.706 77.732C26.9487 77.3027 27.07 76.78 27.07 76.164C27.07 75.5387 26.9487 75.016 26.706 74.596C26.4727 74.1667 26.16 73.8493 25.768 73.644C25.3853 73.4387 24.9653 73.336 24.508 73.336ZM34.0641 72.188C34.9601 72.188 35.6834 72.4773 36.2341 73.056C36.7848 73.6253 37.0601 74.4513 37.0601 75.534V80H35.7861V75.646C35.7861 74.8807 35.5901 74.2927 35.1981 73.882C34.8061 73.4713 34.2741 73.266 33.6021 73.266C32.9021 73.266 32.3421 73.4947 31.9221 73.952C31.5021 74.4 31.2921 75.058 31.2921 75.926V80H30.0181V72.314H31.2921V74.134C31.4881 73.5087 31.8334 73.028 32.3281 72.692C32.8321 72.356 33.4108 72.188 34.0641 72.188ZM40.2882 69.64V80H39.0142V69.64H40.2882ZM42.1125 70.06C42.1125 69.8267 42.1918 69.64 42.3505 69.5C42.5091 69.3507 42.7191 69.276 42.9805 69.276C43.2418 69.276 43.4518 69.3507 43.6105 69.5C43.7691 69.64 43.8485 69.8267 43.8485 70.06C43.8485 70.2933 43.7691 70.4847 43.6105 70.634C43.4518 70.774 43.2418 70.844 42.9805 70.844C42.7191 70.844 42.5091 70.774 42.3505 70.634C42.1918 70.4847 42.1125 70.2933 42.1125 70.06ZM43.6105 72.314V80H42.3365V72.314H43.6105ZM49.7047 72.188C50.6007 72.188 51.3241 72.4773 51.8747 73.056C52.4254 73.6253 52.7007 74.4513 52.7007 75.534V80H51.4267V75.646C51.4267 74.8807 51.2307 74.2927 50.8387 73.882C50.4467 73.4713 49.9147 73.266 49.2427 73.266C48.5427 73.266 47.9827 73.4947 47.5627 73.952C47.1427 74.4 46.9327 75.058 46.9327 75.926V80H45.6587V72.314H46.9327V74.134C47.1287 73.5087 47.4741 73.028 47.9687 72.692C48.4727 72.356 49.0514 72.188 49.7047 72.188ZM61.7248 75.73C61.7248 76.0007 61.7061 76.234 61.6688 76.43H55.5228C55.5508 77.3073 55.7981 77.9653 56.2648 78.404C56.7408 78.8427 57.3195 79.062 58.0008 79.062C58.6168 79.062 59.1301 78.908 59.5408 78.6C59.9608 78.2827 60.2175 77.8627 60.3108 77.34H61.6688C61.5755 77.872 61.3655 78.348 61.0388 78.768C60.7215 79.188 60.3061 79.5147 59.7928 79.748C59.2795 79.9813 58.7008 80.098 58.0568 80.098C57.3195 80.098 56.6661 79.9393 56.0968 79.622C55.5275 79.3047 55.0795 78.852 54.7528 78.264C54.4355 77.6667 54.2768 76.9667 54.2768 76.164C54.2768 75.3613 54.4355 74.6613 54.7528 74.064C55.0795 73.4667 55.5275 73.0093 56.0968 72.692C56.6661 72.3747 57.3195 72.216 58.0568 72.216C58.8035 72.216 59.4521 72.3747 60.0028 72.692C60.5628 73.0093 60.9875 73.434 61.2768 73.966C61.5755 74.498 61.7248 75.086 61.7248 75.73ZM60.4368 75.814C60.4648 75.2447 60.3715 74.7687 60.1568 74.386C59.9421 74.0033 59.6481 73.7187 59.2748 73.532C58.9015 73.3453 58.4955 73.252 58.0568 73.252C57.3568 73.252 56.7688 73.4713 56.2928 73.91C55.8168 74.3393 55.5601 74.974 55.5228 75.814H60.4368ZM69.2581 72.216C70.1261 72.216 70.8215 72.4447 71.3441 72.902C71.8761 73.35 72.1981 73.9567 72.3101 74.722H71.0921C71.0361 74.2647 70.8448 73.8913 70.5181 73.602C70.2008 73.3033 69.7715 73.154 69.2301 73.154C68.7728 73.154 68.4135 73.266 68.1521 73.49C67.9001 73.7047 67.7741 73.9987 67.7741 74.372C67.7741 74.652 67.8581 74.8807 68.0261 75.058C68.2035 75.226 68.4181 75.3567 68.6701 75.45C68.9315 75.534 69.2861 75.6273 69.7341 75.73C70.3035 75.8607 70.7608 75.996 71.1061 76.136C71.4608 76.2667 71.7595 76.4813 72.0021 76.78C72.2541 77.0787 72.3801 77.48 72.3801 77.984C72.3801 78.6093 72.1421 79.118 71.6661 79.51C71.1995 79.902 70.5741 80.098 69.7901 80.098C68.8755 80.098 68.1288 79.8787 67.5501 79.44C66.9715 79.0013 66.6308 78.39 66.5281 77.606H67.7601C67.8068 78.0727 68.0075 78.4507 68.3621 78.74C68.7261 79.0293 69.2021 79.174 69.7901 79.174C70.2288 79.174 70.5695 79.062 70.8121 78.838C71.0641 78.614 71.1901 78.32 71.1901 77.956C71.1901 77.6573 71.1015 77.4193 70.9241 77.242C70.7468 77.0647 70.5275 76.9293 70.2661 76.836C70.0048 76.7427 69.6455 76.6447 69.1881 76.542C68.6188 76.4113 68.1615 76.2807 67.8161 76.15C67.4801 76.0193 67.1908 75.814 66.9481 75.534C66.7148 75.2447 66.5981 74.8573 66.5981 74.372C66.5981 73.728 66.8361 73.21 67.3121 72.818C67.7881 72.4167 68.4368 72.216 69.2581 72.216ZM80.9145 72.314V80H79.6405V78.194C79.4445 78.8193 79.0945 79.3 78.5905 79.636C78.0959 79.9627 77.5172 80.126 76.8545 80.126C75.9679 80.126 75.2492 79.8413 74.6985 79.272C74.1479 78.6933 73.8725 77.8673 73.8725 76.794V72.314H75.1465V76.668C75.1465 77.4333 75.3425 78.026 75.7345 78.446C76.1265 78.8567 76.6585 79.062 77.3305 79.062C78.0305 79.062 78.5905 78.838 79.0105 78.39C79.4305 77.9327 79.6405 77.27 79.6405 76.402V72.314H80.9145ZM87.1976 72.216C87.8789 72.216 88.4856 72.3747 89.0176 72.692C89.5496 73.0093 89.9649 73.4667 90.2636 74.064C90.5716 74.6613 90.7256 75.3613 90.7256 76.164C90.7256 76.9667 90.5716 77.6667 90.2636 78.264C89.9649 78.852 89.5496 79.3047 89.0176 79.622C88.4856 79.9393 87.8789 80.098 87.1976 80.098C86.4509 80.098 85.8163 79.9113 85.2936 79.538C84.7803 79.1553 84.4256 78.656 84.2296 78.04V83.64H82.9556V72.314H84.2296V74.274C84.4256 73.658 84.7803 73.1633 85.2936 72.79C85.8163 72.4073 86.4509 72.216 87.1976 72.216ZM86.8336 73.35C86.3389 73.35 85.8909 73.4667 85.4896 73.7C85.0883 73.924 84.7756 74.2507 84.5516 74.68C84.3276 75.1093 84.2156 75.604 84.2156 76.164C84.2156 76.724 84.3276 77.2187 84.5516 77.648C84.7756 78.068 85.0883 78.3947 85.4896 78.628C85.8909 78.8613 86.3389 78.978 86.8336 78.978C87.6269 78.978 88.2569 78.7307 88.7236 78.236C89.1996 77.732 89.4376 77.0413 89.4376 76.164C89.4376 75.2867 89.1996 74.6007 88.7236 74.106C88.2569 73.602 87.6269 73.35 86.8336 73.35ZM96.6312 72.216C97.3125 72.216 97.9192 72.3747 98.4512 72.692C98.9832 73.0093 99.3985 73.4667 99.6972 74.064C100.005 74.6613 100.159 75.3613 100.159 76.164C100.159 76.9667 100.005 77.6667 99.6972 78.264C99.3985 78.852 98.9832 79.3047 98.4512 79.622C97.9192 79.9393 97.3125 80.098 96.6312 80.098C95.8845 80.098 95.2499 79.9113 94.7272 79.538C94.2139 79.1553 93.8592 78.656 93.6632 78.04V83.64H92.3892V72.314H93.6632V74.274C93.8592 73.658 94.2139 73.1633 94.7272 72.79C95.2499 72.4073 95.8845 72.216 96.6312 72.216ZM96.2672 73.35C95.7725 73.35 95.3245 73.4667 94.9232 73.7C94.5219 73.924 94.2092 74.2507 93.9852 74.68C93.7612 75.1093 93.6492 75.604 93.6492 76.164C93.6492 76.724 93.7612 77.2187 93.9852 77.648C94.2092 78.068 94.5219 78.3947 94.9232 78.628C95.3245 78.8613 95.7725 78.978 96.2672 78.978C97.0605 78.978 97.6905 78.7307 98.1572 78.236C98.6332 77.732 98.8712 77.0413 98.8712 76.164C98.8712 75.2867 98.6332 74.6007 98.1572 74.106C97.6905 73.602 97.0605 73.35 96.2672 73.35ZM105.309 72.216C106.046 72.216 106.704 72.3747 107.283 72.692C107.871 73.0093 108.328 73.4667 108.655 74.064C108.991 74.6613 109.159 75.3613 109.159 76.164C109.159 76.9667 108.991 77.6667 108.655 78.264C108.328 78.852 107.871 79.3047 107.283 79.622C106.704 79.9393 106.046 80.098 105.309 80.098C104.571 80.098 103.909 79.9393 103.321 79.622C102.742 79.3047 102.285 78.852 101.949 78.264C101.613 77.6667 101.445 76.9667 101.445 76.164C101.445 75.3613 101.613 74.6613 101.949 74.064C102.285 73.4667 102.742 73.0093 103.321 72.692C103.909 72.3747 104.571 72.216 105.309 72.216ZM105.309 73.336C104.851 73.336 104.427 73.4387 104.035 73.644C103.652 73.8493 103.339 74.1667 103.097 74.596C102.863 75.016 102.747 75.5387 102.747 76.164C102.747 76.78 102.863 77.3027 103.097 77.732C103.339 78.152 103.652 78.4647 104.035 78.67C104.427 78.8753 104.851 78.978 105.309 78.978C105.766 78.978 106.186 78.8753 106.569 78.67C106.961 78.4647 107.273 78.152 107.507 77.732C107.749 77.3027 107.871 76.78 107.871 76.164C107.871 75.5387 107.749 75.016 107.507 74.596C107.273 74.1667 106.961 73.8493 106.569 73.644C106.186 73.4387 105.766 73.336 105.309 73.336ZM112.093 73.868C112.345 73.336 112.714 72.9253 113.199 72.636C113.684 72.3373 114.263 72.188 114.935 72.188V73.574H114.543C113.824 73.574 113.236 73.7607 112.779 74.134C112.322 74.498 112.093 75.1047 112.093 75.954V80H110.819V72.314H112.093V73.868ZM119.86 78.88V80H118.908C118.124 80 117.536 79.8133 117.144 79.44C116.761 79.0667 116.57 78.4413 116.57 77.564V73.42H115.422V72.314H116.57V70.396H117.858V72.314H119.846V73.42H117.858V77.592C117.858 78.0867 117.947 78.4273 118.124 78.614C118.311 78.7913 118.628 78.88 119.076 78.88H119.86ZM124.44 79.02C126.026 77.956 127.296 76.9013 128.248 75.856C129.2 74.8013 129.676 73.8213 129.676 72.916C129.676 72.356 129.531 71.908 129.242 71.572C128.962 71.2267 128.504 71.054 127.87 71.054C127.216 71.054 126.722 71.264 126.386 71.684C126.05 72.0947 125.863 72.664 125.826 73.392H124.566C124.631 72.2907 124.972 71.446 125.588 70.858C126.204 70.2607 126.997 69.962 127.968 69.962C128.892 69.962 129.624 70.2093 130.166 70.704C130.707 71.1987 130.978 71.8987 130.978 72.804C130.978 73.5507 130.735 74.3113 130.25 75.086C129.774 75.8513 129.172 76.5653 128.444 77.228C127.725 77.8813 126.983 78.4367 126.218 78.894H131.23V79.944H124.44V79.02ZM132.229 77.732V76.668L137.297 70.06H138.669V76.626H140.125V77.732H138.669V80H137.381V77.732H132.229ZM137.465 71.614L133.573 76.626H137.465V71.614ZM145.643 66.812L141.807 82.394H140.575L144.397 66.812H145.643ZM152.363 71.054L148.625 80H147.281L151.075 71.18H145.895V70.074H152.363V71.054ZM154.545 79.062C154.676 79.4727 154.741 79.8553 154.741 80.21C154.741 80.6953 154.62 81.0827 154.377 81.372C154.135 81.6707 153.771 81.82 153.285 81.82V81.274C153.519 81.274 153.687 81.2087 153.789 81.078C153.901 80.9567 153.957 80.7607 153.957 80.49V80.364H153.243V79.062H154.545ZM170.266 72.314L168.054 80H166.682L164.568 73.742L162.44 80H161.054L158.87 72.314H160.158L161.796 78.782L163.924 72.314H165.254L167.396 78.768L169.048 72.314H170.266ZM178.524 75.73C178.524 76.0007 178.505 76.234 178.468 76.43H172.322C172.35 77.3073 172.597 77.9653 173.064 78.404C173.54 78.8427 174.118 79.062 174.8 79.062C175.416 79.062 175.929 78.908 176.34 78.6C176.76 78.2827 177.016 77.8627 177.11 77.34H178.468C178.374 77.872 178.164 78.348 177.838 78.768C177.52 79.188 177.105 79.5147 176.592 79.748C176.078 79.9813 175.5 80.098 174.856 80.098C174.118 80.098 173.465 79.9393 172.896 79.622C172.326 79.3047 171.878 78.852 171.552 78.264C171.234 77.6667 171.076 76.9667 171.076 76.164C171.076 75.3613 171.234 74.6613 171.552 74.064C171.878 73.4667 172.326 73.0093 172.896 72.692C173.465 72.3747 174.118 72.216 174.856 72.216C175.602 72.216 176.251 72.3747 176.802 72.692C177.362 73.0093 177.786 73.434 178.076 73.966C178.374 74.498 178.524 75.086 178.524 75.73ZM177.236 75.814C177.264 75.2447 177.17 74.7687 176.956 74.386C176.741 74.0033 176.447 73.7187 176.074 73.532C175.7 73.3453 175.294 73.252 174.856 73.252C174.156 73.252 173.568 73.4713 173.092 73.91C172.616 74.3393 172.359 74.974 172.322 75.814H177.236ZM186.799 72.216C187.546 72.216 188.176 72.4027 188.689 72.776C189.212 73.1493 189.576 73.6487 189.781 74.274V72.314H191.055V80H189.781V78.04C189.576 78.6653 189.212 79.1647 188.689 79.538C188.176 79.9113 187.546 80.098 186.799 80.098C186.118 80.098 185.511 79.9393 184.979 79.622C184.447 79.3047 184.027 78.852 183.719 78.264C183.42 77.6667 183.271 76.9667 183.271 76.164C183.271 75.3613 183.42 74.6613 183.719 74.064C184.027 73.4667 184.447 73.0093 184.979 72.692C185.511 72.3747 186.118 72.216 186.799 72.216ZM187.163 73.35C186.379 73.35 185.749 73.602 185.273 74.106C184.806 74.6007 184.573 75.2867 184.573 76.164C184.573 77.0413 184.806 77.732 185.273 78.236C185.749 78.7307 186.379 78.978 187.163 78.978C187.667 78.978 188.115 78.8613 188.507 78.628C188.908 78.3947 189.221 78.068 189.445 77.648C189.669 77.2187 189.781 76.724 189.781 76.164C189.781 75.604 189.669 75.1093 189.445 74.68C189.221 74.2507 188.908 73.924 188.507 73.7C188.115 73.4667 187.667 73.35 187.163 73.35ZM194.357 73.868C194.609 73.336 194.977 72.9253 195.463 72.636C195.948 72.3373 196.527 72.188 197.199 72.188V73.574H196.807C196.088 73.574 195.5 73.7607 195.043 74.134C194.585 74.498 194.357 75.1047 194.357 75.954V80H193.083V72.314H194.357V73.868ZM205.526 75.73C205.526 76.0007 205.507 76.234 205.47 76.43H199.324C199.352 77.3073 199.599 77.9653 200.066 78.404C200.542 78.8427 201.12 79.062 201.802 79.062C202.418 79.062 202.931 78.908 203.342 78.6C203.762 78.2827 204.018 77.8627 204.112 77.34H205.47C205.376 77.872 205.166 78.348 204.84 78.768C204.522 79.188 204.107 79.5147 203.594 79.748C203.08 79.9813 202.502 80.098 201.858 80.098C201.12 80.098 200.467 79.9393 199.898 79.622C199.328 79.3047 198.88 78.852 198.554 78.264C198.236 77.6667 198.078 76.9667 198.078 76.164C198.078 75.3613 198.236 74.6613 198.554 74.064C198.88 73.4667 199.328 73.0093 199.898 72.692C200.467 72.3747 201.12 72.216 201.858 72.216C202.604 72.216 203.253 72.3747 203.804 72.692C204.364 73.0093 204.788 73.434 205.078 73.966C205.376 74.498 205.526 75.086 205.526 75.73ZM204.238 75.814C204.266 75.2447 204.172 74.7687 203.958 74.386C203.743 74.0033 203.449 73.7187 203.076 73.532C202.702 73.3453 202.296 73.252 201.858 73.252C201.158 73.252 200.57 73.4713 200.094 73.91C199.618 74.3393 199.361 74.974 199.324 75.814H204.238ZM214.697 72.188C215.593 72.188 216.316 72.4773 216.867 73.056C217.418 73.6253 217.693 74.4513 217.693 75.534V80H216.419V75.646C216.419 74.8807 216.223 74.2927 215.831 73.882C215.439 73.4713 214.907 73.266 214.235 73.266C213.535 73.266 212.975 73.4947 212.555 73.952C212.135 74.4 211.925 75.058 211.925 75.926V80H210.651V69.64H211.925V74.134C212.121 73.5087 212.466 73.028 212.961 72.692C213.465 72.356 214.044 72.188 214.697 72.188ZM226.717 75.73C226.717 76.0007 226.698 76.234 226.661 76.43H220.515C220.543 77.3073 220.79 77.9653 221.257 78.404C221.733 78.8427 222.312 79.062 222.993 79.062C223.609 79.062 224.122 78.908 224.533 78.6C224.953 78.2827 225.21 77.8627 225.303 77.34H226.661C226.568 77.872 226.358 78.348 226.031 78.768C225.714 79.188 225.298 79.5147 224.785 79.748C224.272 79.9813 223.693 80.098 223.049 80.098C222.312 80.098 221.658 79.9393 221.089 79.622C220.52 79.3047 220.072 78.852 219.745 78.264C219.428 77.6667 219.269 76.9667 219.269 76.164C219.269 75.3613 219.428 74.6613 219.745 74.064C220.072 73.4667 220.52 73.0093 221.089 72.692C221.658 72.3747 222.312 72.216 223.049 72.216C223.796 72.216 224.444 72.3747 224.995 72.692C225.555 73.0093 225.98 73.434 226.269 73.966C226.568 74.498 226.717 75.086 226.717 75.73ZM225.429 75.814C225.457 75.2447 225.364 74.7687 225.149 74.386C224.934 74.0033 224.64 73.7187 224.267 73.532C223.894 73.3453 223.488 73.252 223.049 73.252C222.349 73.252 221.761 73.4713 221.285 73.91C220.809 74.3393 220.552 74.974 220.515 75.814H225.429ZM229.657 73.868C229.909 73.336 230.278 72.9253 230.763 72.636C231.249 72.3373 231.827 72.188 232.499 72.188V73.574H232.107C231.389 73.574 230.801 73.7607 230.343 74.134C229.886 74.498 229.657 75.1047 229.657 75.954V80H228.383V72.314H229.657V73.868ZM240.826 75.73C240.826 76.0007 240.808 76.234 240.77 76.43H234.624C234.652 77.3073 234.9 77.9653 235.366 78.404C235.842 78.8427 236.421 79.062 237.102 79.062C237.718 79.062 238.232 78.908 238.642 78.6C239.062 78.2827 239.319 77.8627 239.412 77.34H240.77C240.677 77.872 240.467 78.348 240.14 78.768C239.823 79.188 239.408 79.5147 238.894 79.748C238.381 79.9813 237.802 80.098 237.158 80.098C236.421 80.098 235.768 79.9393 235.198 79.622C234.629 79.3047 234.181 78.852 233.854 78.264C233.537 77.6667 233.378 76.9667 233.378 76.164C233.378 75.3613 233.537 74.6613 233.854 74.064C234.181 73.4667 234.629 73.0093 235.198 72.692C235.768 72.3747 236.421 72.216 237.158 72.216C237.905 72.216 238.554 72.3747 239.104 72.692C239.664 73.0093 240.089 73.434 240.378 73.966C240.677 74.498 240.826 75.086 240.826 75.73ZM239.538 75.814C239.566 75.2447 239.473 74.7687 239.258 74.386C239.044 74.0033 238.75 73.7187 238.376 73.532C238.003 73.3453 237.597 73.252 237.158 73.252C236.458 73.252 235.87 73.4713 235.394 73.91C234.918 74.3393 234.662 74.974 234.624 75.814H239.538ZM249.62 78.88V80H248.668C247.884 80 247.296 79.8133 246.904 79.44C246.521 79.0667 246.33 78.4413 246.33 77.564V73.42H245.182V72.314H246.33V70.396H247.618V72.314H249.606V73.42H247.618V77.592C247.618 78.0867 247.706 78.4273 247.884 78.614C248.07 78.7913 248.388 78.88 248.836 78.88H249.62ZM254.66 72.216C255.398 72.216 256.056 72.3747 256.634 72.692C257.222 73.0093 257.68 73.4667 258.006 74.064C258.342 74.6613 258.51 75.3613 258.51 76.164C258.51 76.9667 258.342 77.6667 258.006 78.264C257.68 78.852 257.222 79.3047 256.634 79.622C256.056 79.9393 255.398 80.098 254.66 80.098C253.923 80.098 253.26 79.9393 252.672 79.622C252.094 79.3047 251.636 78.852 251.3 78.264C250.964 77.6667 250.796 76.9667 250.796 76.164C250.796 75.3613 250.964 74.6613 251.3 74.064C251.636 73.4667 252.094 73.0093 252.672 72.692C253.26 72.3747 253.923 72.216 254.66 72.216ZM254.66 73.336C254.203 73.336 253.778 73.4387 253.386 73.644C253.004 73.8493 252.691 74.1667 252.448 74.596C252.215 75.016 252.098 75.5387 252.098 76.164C252.098 76.78 252.215 77.3027 252.448 77.732C252.691 78.152 253.004 78.4647 253.386 78.67C253.778 78.8753 254.203 78.978 254.66 78.978C255.118 78.978 255.538 78.8753 255.92 78.67C256.312 78.4647 256.625 78.152 256.858 77.732C257.101 77.3027 257.222 76.78 257.222 76.164C257.222 75.5387 257.101 75.016 256.858 74.596C256.625 74.1667 256.312 73.8493 255.92 73.644C255.538 73.4387 255.118 73.336 254.66 73.336ZM25.068 96.188C25.964 96.188 26.6873 96.4773 27.238 97.056C27.7887 97.6253 28.064 98.4513 28.064 99.534V104H26.79V99.646C26.79 98.8807 26.594 98.2927 26.202 97.882C25.81 97.4713 25.278 97.266 24.606 97.266C23.906 97.266 23.346 97.4947 22.926 97.952C22.506 98.4 22.296 99.058 22.296 99.926V104H21.022V93.64H22.296V98.134C22.492 97.5087 22.8373 97.028 23.332 96.692C23.836 96.356 24.4147 96.188 25.068 96.188ZM37.0881 99.73C37.0881 100.001 37.0694 100.234 37.0321 100.43H30.8861C30.9141 101.307 31.1614 101.965 31.6281 102.404C32.1041 102.843 32.6828 103.062 33.3641 103.062C33.9801 103.062 34.4934 102.908 34.9041 102.6C35.3241 102.283 35.5808 101.863 35.6741 101.34H37.0321C36.9388 101.872 36.7288 102.348 36.4021 102.768C36.0848 103.188 35.6694 103.515 35.1561 103.748C34.6428 103.981 34.0641 104.098 33.4201 104.098C32.6828 104.098 32.0294 103.939 31.4601 103.622C30.8908 103.305 30.4428 102.852 30.1161 102.264C29.7988 101.667 29.6401 100.967 29.6401 100.164C29.6401 99.3613 29.7988 98.6613 30.1161 98.064C30.4428 97.4667 30.8908 97.0093 31.4601 96.692C32.0294 96.3747 32.6828 96.216 33.4201 96.216C34.1668 96.216 34.8154 96.3747 35.3661 96.692C35.9261 97.0093 36.3508 97.434 36.6401 97.966C36.9388 98.498 37.0881 99.086 37.0881 99.73ZM35.8001 99.814C35.8281 99.2447 35.7348 98.7687 35.5201 98.386C35.3054 98.0033 35.0114 97.7187 34.6381 97.532C34.2648 97.3453 33.8588 97.252 33.4201 97.252C32.7201 97.252 32.1321 97.4713 31.6561 97.91C31.1801 98.3393 30.9234 98.974 30.8861 99.814H35.8001ZM40.0284 93.64V104H38.7544V93.64H40.0284ZM46.3187 96.216C47 96.216 47.6067 96.3747 48.1387 96.692C48.6707 97.0093 49.086 97.4667 49.3847 98.064C49.6927 98.6613 49.8467 99.3613 49.8467 100.164C49.8467 100.967 49.6927 101.667 49.3847 102.264C49.086 102.852 48.6707 103.305 48.1387 103.622C47.6067 103.939 47 104.098 46.3187 104.098C45.572 104.098 44.9374 103.911 44.4147 103.538C43.9014 103.155 43.5467 102.656 43.3507 102.04V107.64H42.0767V96.314H43.3507V98.274C43.5467 97.658 43.9014 97.1633 44.4147 96.79C44.9374 96.4073 45.572 96.216 46.3187 96.216ZM45.9547 97.35C45.46 97.35 45.012 97.4667 44.6107 97.7C44.2094 97.924 43.8967 98.2507 43.6727 98.68C43.4487 99.1093 43.3367 99.604 43.3367 100.164C43.3367 100.724 43.4487 101.219 43.6727 101.648C43.8967 102.068 44.2094 102.395 44.6107 102.628C45.012 102.861 45.46 102.978 45.9547 102.978C46.748 102.978 47.378 102.731 47.8447 102.236C48.3207 101.732 48.5587 101.041 48.5587 100.164C48.5587 99.2867 48.3207 98.6007 47.8447 98.106C47.378 97.602 46.748 97.35 45.9547 97.35ZM55.5013 96.314L57.9933 102.362L60.3033 96.314H61.7173L57.1533 107.64H55.7113L57.3073 103.874L54.0733 96.314H55.5013ZM66.3713 96.216C67.1086 96.216 67.7666 96.3747 68.3453 96.692C68.9333 97.0093 69.3906 97.4667 69.7173 98.064C70.0533 98.6613 70.2213 99.3613 70.2213 100.164C70.2213 100.967 70.0533 101.667 69.7173 102.264C69.3906 102.852 68.9333 103.305 68.3453 103.622C67.7666 103.939 67.1086 104.098 66.3713 104.098C65.6339 104.098 64.9713 103.939 64.3833 103.622C63.8046 103.305 63.3473 102.852 63.0113 102.264C62.6753 101.667 62.5073 100.967 62.5073 100.164C62.5073 99.3613 62.6753 98.6613 63.0113 98.064C63.3473 97.4667 63.8046 97.0093 64.3833 96.692C64.9713 96.3747 65.6339 96.216 66.3713 96.216ZM66.3713 97.336C65.9139 97.336 65.4893 97.4387 65.0973 97.644C64.7146 97.8493 64.4019 98.1667 64.1593 98.596C63.9259 99.016 63.8093 99.5387 63.8093 100.164C63.8093 100.78 63.9259 101.303 64.1593 101.732C64.4019 102.152 64.7146 102.465 65.0973 102.67C65.4893 102.875 65.9139 102.978 66.3713 102.978C66.8286 102.978 67.2486 102.875 67.6313 102.67C68.0233 102.465 68.3359 102.152 68.5693 101.732C68.8119 101.303 68.9333 100.78 68.9333 100.164C68.9333 99.5387 68.8119 99.016 68.5693 98.596C68.3359 98.1667 68.0233 97.8493 67.6313 97.644C67.2486 97.4387 66.8286 97.336 66.3713 97.336ZM78.7134 96.314V104H77.4394V102.194C77.2434 102.819 76.8934 103.3 76.3894 103.636C75.8947 103.963 75.316 104.126 74.6534 104.126C73.7667 104.126 73.048 103.841 72.4974 103.272C71.9467 102.693 71.6714 101.867 71.6714 100.794V96.314H72.9454V100.668C72.9454 101.433 73.1414 102.026 73.5334 102.446C73.9254 102.857 74.4574 103.062 75.1294 103.062C75.8294 103.062 76.3894 102.838 76.8094 102.39C77.2294 101.933 77.4394 101.27 77.4394 100.402V96.314H78.7134Z" fill="white"/>
<path d="M34.256 28.644V44H31.176V37.466H24.598V44H21.518V28.644H24.598V34.958H31.176V28.644H34.256ZM42.6995 44.198C41.5262 44.198 40.4702 43.9413 39.5315 43.428C38.5929 42.9 37.8522 42.1593 37.3095 41.206C36.7815 40.2527 36.5175 39.1527 36.5175 37.906C36.5175 36.6593 36.7889 35.5593 37.3315 34.606C37.8889 33.6527 38.6442 32.9193 39.5975 32.406C40.5509 31.878 41.6142 31.614 42.7875 31.614C43.9609 31.614 45.0242 31.878 45.9775 32.406C46.9309 32.9193 47.6789 33.6527 48.2215 34.606C48.7789 35.5593 49.0575 36.6593 49.0575 37.906C49.0575 39.1527 48.7715 40.2527 48.1995 41.206C47.6422 42.1593 46.8795 42.9 45.9115 43.428C44.9582 43.9413 43.8875 44.198 42.6995 44.198ZM42.6995 41.514C43.2569 41.514 43.7775 41.382 44.2615 41.118C44.7602 40.8393 45.1562 40.4287 45.4495 39.886C45.7429 39.3433 45.8895 38.6833 45.8895 37.906C45.8895 36.7473 45.5815 35.86 44.9655 35.244C44.3642 34.6133 43.6235 34.298 42.7435 34.298C41.8635 34.298 41.1229 34.6133 40.5215 35.244C39.9349 35.86 39.6415 36.7473 39.6415 37.906C39.6415 39.0647 39.9275 39.9593 40.4995 40.59C41.0862 41.206 41.8195 41.514 42.6995 41.514ZM68.2128 31.812L64.6488 44H61.3268L59.1048 35.486L56.8828 44H53.5388L49.9528 31.812H53.0768L55.2328 41.096L57.5648 31.812H60.8208L63.1088 41.074L65.2648 31.812H68.2128ZM74.3295 37.906C74.3295 36.6447 74.5862 35.5447 75.0995 34.606C75.6128 33.6527 76.3242 32.9193 77.2335 32.406C78.1428 31.878 79.1842 31.614 80.3575 31.614C81.8682 31.614 83.1148 31.9953 84.0975 32.758C85.0948 33.506 85.7622 34.562 86.0995 35.926H82.7775C82.6015 35.398 82.3008 34.9873 81.8755 34.694C81.4648 34.386 80.9515 34.232 80.3355 34.232C79.4555 34.232 78.7588 34.5547 78.2455 35.2C77.7322 35.8307 77.4755 36.7327 77.4755 37.906C77.4755 39.0647 77.7322 39.9667 78.2455 40.612C78.7588 41.2427 79.4555 41.558 80.3355 41.558C81.5822 41.558 82.3962 41.0007 82.7775 39.886H86.0995C85.7622 41.206 85.0948 42.2547 84.0975 43.032C83.1002 43.8093 81.8535 44.198 80.3575 44.198C79.1842 44.198 78.1428 43.9413 77.2335 43.428C76.3242 42.9 75.6128 42.1667 75.0995 41.228C74.5862 40.2747 74.3295 39.1673 74.3295 37.906ZM87.5639 37.862C87.5639 36.63 87.8059 35.5373 88.2899 34.584C88.7886 33.6307 89.4559 32.8973 90.2919 32.384C91.1426 31.8707 92.0886 31.614 93.1299 31.614C94.0392 31.614 94.8312 31.7973 95.5059 32.164C96.1952 32.5307 96.7452 32.9927 97.1559 33.55V31.812H100.258V44H97.1559V42.218C96.7599 42.79 96.2099 43.2667 95.5059 43.648C94.8166 44.0147 94.0172 44.198 93.1079 44.198C92.0812 44.198 91.1426 43.934 90.2919 43.406C89.4559 42.878 88.7886 42.1373 88.2899 41.184C87.8059 40.216 87.5639 39.1087 87.5639 37.862ZM97.1559 37.906C97.1559 37.158 97.0092 36.52 96.7159 35.992C96.4226 35.4493 96.0266 35.0387 95.5279 34.76C95.0292 34.4667 94.4939 34.32 93.9219 34.32C93.3499 34.32 92.8219 34.4593 92.3379 34.738C91.8539 35.0167 91.4579 35.4273 91.1499 35.97C90.8566 36.498 90.7099 37.1287 90.7099 37.862C90.7099 38.5953 90.8566 39.2407 91.1499 39.798C91.4579 40.3407 91.8539 40.7587 92.3379 41.052C92.8366 41.3453 93.3646 41.492 93.9219 41.492C94.4939 41.492 95.0292 41.3527 95.5279 41.074C96.0266 40.7807 96.4226 40.37 96.7159 39.842C97.0092 39.2993 97.1559 38.654 97.1559 37.906ZM110.02 31.636C111.472 31.636 112.645 32.098 113.54 33.022C114.435 33.9313 114.882 35.2073 114.882 36.85V44H111.802V37.268C111.802 36.3 111.56 35.5593 111.076 35.046C110.592 34.518 109.932 34.254 109.096 34.254C108.245 34.254 107.571 34.518 107.072 35.046C106.588 35.5593 106.346 36.3 106.346 37.268V44H103.266V31.812H106.346V33.33C106.757 32.802 107.277 32.3913 107.908 32.098C108.553 31.79 109.257 31.636 110.02 31.636ZM139.949 31.812L136.385 44H133.063L130.841 35.486L128.619 44H125.275L121.689 31.812H124.813L126.969 41.096L129.301 31.812H132.557L134.845 41.074L137.001 31.812H139.949ZM152.946 37.642C152.946 38.082 152.916 38.478 152.858 38.83H143.948C144.021 39.71 144.329 40.3993 144.872 40.898C145.414 41.3967 146.082 41.646 146.874 41.646C148.018 41.646 148.832 41.1547 149.316 40.172H152.638C152.286 41.3453 151.611 42.3133 150.614 43.076C149.616 43.824 148.392 44.198 146.94 44.198C145.766 44.198 144.71 43.9413 143.772 43.428C142.848 42.9 142.122 42.1593 141.594 41.206C141.08 40.2527 140.824 39.1527 140.824 37.906C140.824 36.6447 141.08 35.5373 141.594 34.584C142.107 33.6307 142.826 32.8973 143.75 32.384C144.674 31.8707 145.737 31.614 146.94 31.614C148.098 31.614 149.132 31.8633 150.042 32.362C150.966 32.8607 151.677 33.572 152.176 34.496C152.689 35.4053 152.946 36.454 152.946 37.642ZM149.756 36.762C149.741 35.97 149.455 35.3393 148.898 34.87C148.34 34.386 147.658 34.144 146.852 34.144C146.089 34.144 145.444 34.3787 144.916 34.848C144.402 35.3027 144.087 35.9407 143.97 36.762H149.756ZM167.3 31.636C168.224 31.636 169.045 31.8413 169.764 32.252C170.483 32.648 171.04 33.242 171.436 34.034C171.847 34.8113 172.052 35.75 172.052 36.85V44H168.972V37.268C168.972 36.3 168.73 35.5593 168.246 35.046C167.762 34.518 167.102 34.254 166.266 34.254C165.415 34.254 164.741 34.518 164.242 35.046C163.758 35.5593 163.516 36.3 163.516 37.268V44H160.436V27.72H163.516V33.33C163.912 32.802 164.44 32.3913 165.1 32.098C165.76 31.79 166.493 31.636 167.3 31.636ZM186.311 37.642C186.311 38.082 186.282 38.478 186.223 38.83H177.313C177.386 39.71 177.694 40.3993 178.237 40.898C178.78 41.3967 179.447 41.646 180.239 41.646C181.383 41.646 182.197 41.1547 182.681 40.172H186.003C185.651 41.3453 184.976 42.3133 183.979 43.076C182.982 43.824 181.757 44.198 180.305 44.198C179.132 44.198 178.076 43.9413 177.137 43.428C176.213 42.9 175.487 42.1593 174.959 41.206C174.446 40.2527 174.189 39.1527 174.189 37.906C174.189 36.6447 174.446 35.5373 174.959 34.584C175.472 33.6307 176.191 32.8973 177.115 32.384C178.039 31.8707 179.102 31.614 180.305 31.614C181.464 31.614 182.498 31.8633 183.407 32.362C184.331 32.8607 185.042 33.572 185.541 34.496C186.054 35.4053 186.311 36.454 186.311 37.642ZM183.121 36.762C183.106 35.97 182.82 35.3393 182.263 34.87C181.706 34.386 181.024 34.144 180.217 34.144C179.454 34.144 178.809 34.3787 178.281 34.848C177.768 35.3027 177.452 35.9407 177.335 36.762H183.121ZM191.639 27.72V44H188.559V27.72H191.639ZM197.762 33.572C198.158 33.0147 198.701 32.5527 199.39 32.186C200.094 31.8047 200.893 31.614 201.788 31.614C202.829 31.614 203.768 31.8707 204.604 32.384C205.455 32.8973 206.122 33.6307 206.606 34.584C207.105 35.5227 207.354 36.6153 207.354 37.862C207.354 39.1087 207.105 40.216 206.606 41.184C206.122 42.1373 205.455 42.878 204.604 43.406C203.768 43.934 202.829 44.198 201.788 44.198C200.893 44.198 200.101 44.0147 199.412 43.648C198.737 43.2813 198.187 42.8193 197.762 42.262V49.808H194.682V31.812H197.762V33.572ZM204.208 37.862C204.208 37.1287 204.054 36.498 203.746 35.97C203.453 35.4273 203.057 35.0167 202.558 34.738C202.074 34.4593 201.546 34.32 200.974 34.32C200.417 34.32 199.889 34.4667 199.39 34.76C198.906 35.0387 198.51 35.4493 198.202 35.992C197.909 36.5347 197.762 37.1727 197.762 37.906C197.762 38.6393 197.909 39.2773 198.202 39.82C198.51 40.3627 198.906 40.7807 199.39 41.074C199.889 41.3527 200.417 41.492 200.974 41.492C201.546 41.492 202.074 41.3453 202.558 41.052C203.057 40.7587 203.453 40.3407 203.746 39.798C204.054 39.2553 204.208 38.61 204.208 37.862ZM226.494 31.812L218.948 49.764H215.67L218.31 43.692L213.426 31.812H216.88L220.026 40.326L223.216 31.812H226.494ZM233.567 44.198C232.393 44.198 231.337 43.9413 230.399 43.428C229.46 42.9 228.719 42.1593 228.177 41.206C227.649 40.2527 227.385 39.1527 227.385 37.906C227.385 36.6593 227.656 35.5593 228.199 34.606C228.756 33.6527 229.511 32.9193 230.465 32.406C231.418 31.878 232.481 31.614 233.655 31.614C234.828 31.614 235.891 31.878 236.845 32.406C237.798 32.9193 238.546 33.6527 239.089 34.606C239.646 35.5593 239.925 36.6593 239.925 37.906C239.925 39.1527 239.639 40.2527 239.067 41.206C238.509 42.1593 237.747 42.9 236.779 43.428C235.825 43.9413 234.755 44.198 233.567 44.198ZM233.567 41.514C234.124 41.514 234.645 41.382 235.129 41.118C235.627 40.8393 236.023 40.4287 236.317 39.886C236.61 39.3433 236.757 38.6833 236.757 37.906C236.757 36.7473 236.449 35.86 235.833 35.244C235.231 34.6133 234.491 34.298 233.611 34.298C232.731 34.298 231.99 34.6133 231.389 35.244C230.802 35.86 230.509 36.7473 230.509 37.906C230.509 39.0647 230.795 39.9593 231.367 40.59C231.953 41.206 232.687 41.514 233.567 41.514ZM253.69 31.812V44H250.588V42.46C250.192 42.988 249.671 43.406 249.026 43.714C248.395 44.0073 247.706 44.154 246.958 44.154C246.005 44.154 245.161 43.956 244.428 43.56C243.695 43.1493 243.115 42.5553 242.69 41.778C242.279 40.986 242.074 40.0473 242.074 38.962V31.812H245.154V38.522C245.154 39.49 245.396 40.238 245.88 40.766C246.364 41.2793 247.024 41.536 247.86 41.536C248.711 41.536 249.378 41.2793 249.862 40.766C250.346 40.238 250.588 39.49 250.588 38.522V31.812H253.69ZM261.019 28.116C262.544 28.116 263.769 28.534 264.693 29.37C265.632 30.1913 266.101 31.328 266.101 32.78C266.101 34.2173 265.639 35.3173 264.715 36.08C263.791 36.828 262.566 37.202 261.041 37.202L260.953 38.896H258.247L258.137 35.156H259.127C260.403 35.156 261.386 34.9873 262.075 34.65C262.764 34.3127 263.109 33.6967 263.109 32.802C263.109 32.1567 262.918 31.6433 262.537 31.262C262.17 30.8807 261.664 30.69 261.019 30.69C260.344 30.69 259.816 30.8733 259.435 31.24C259.068 31.6067 258.885 32.1127 258.885 32.758H255.981C255.966 31.8633 256.157 31.064 256.553 30.36C256.949 29.656 257.528 29.106 258.291 28.71C259.068 28.314 259.978 28.116 261.019 28.116ZM259.589 44.154C259.032 44.154 258.57 43.9853 258.203 43.648C257.851 43.296 257.675 42.8633 257.675 42.35C257.675 41.8367 257.851 41.4113 258.203 41.074C258.57 40.722 259.032 40.546 259.589 40.546C260.132 40.546 260.579 40.722 260.931 41.074C261.283 41.4113 261.459 41.8367 261.459 42.35C261.459 42.8633 261.283 43.296 260.931 43.648C260.579 43.9853 260.132 44.154 259.589 44.154Z" fill="#F2EDDC"/>
<mask id="mask0_204_69" style="mask-type:alpha" maskUnits="userSpaceOnUse" x="0" y="0" width="300" height="223">
<rect width="300" height="223" rx="3" fill="#C4C4C4"/>
</mask>
<g mask="url(#mask0_204_69)">
<path opacity="0.1" d="M293.723 111.071L166.56 149.248C159.092 151.49 154.827 159.405 157.071 166.879L184.211 257.279C186.447 264.728 194.347 269.018 201.842 266.768L329.005 228.591C336.454 226.355 340.744 218.455 338.494 210.96L311.354 120.56C309.118 113.111 301.218 108.821 293.723 111.071ZM294.565 120.673L251.583 200.535L171.19 157.713L294.565 120.673ZM192.689 252.693L166.66 165.994L223.155 196.086L192.689 252.693ZM201 257.166L231.485 200.523L251.293 211.074C253.586 212.296 256.436 211.434 257.668 209.146L268.083 189.793L324.419 220.113L201 257.166ZM328.892 211.802L272.556 181.482L302.876 125.146L328.892 211.802Z" fill="#F2EDDC"/>
</g>
<path d="M261.219 160.125H246.781C245.832 160.125 245.062 160.895 245.062 161.844V172.156C245.062 173.105 245.832 173.875 246.781 173.875H261.219C262.168 173.875 262.938 173.105 262.938 172.156V161.844C262.938 160.895 262.168 160.125 261.219 160.125Z" stroke="#4F5955" stroke-width="1.375" stroke-linecap="round" stroke-linejoin="round"/>
<path d="M247.812 162.875L254 167.688L260.188 162.875" stroke="#4F5955" stroke-width="1.375" stroke-linecap="round" stroke-linejoin="round"/>
</svg>
